<?xml version="1.0" encoding="UTF-8"?>
<!DOCTYPE svg PUBLIC "-//W3C//DTD SVG 1.1//EN" "http://www.w3.org/Graphics/SVG/1.1/DTD/svg11.dtd">
<svg xmlns="http://www.w3.org/2000/svg" version="1.1" width="1024px" height="1024px" style="shape-rendering:geometricPrecision; text-rendering:geometricPrecision; image-rendering:optimizeQuality; fill-rule:evenodd; clip-rule:evenodd" xmlns:xlink="http://www.w3.org/1999/xlink">
<g><path style="opacity:0.996" fill="#263268" d="M 146.5,101.5 C 291.849,101.546 437.183,102.379 582.5,104C 623.908,110.208 662.241,124.541 697.5,147C 798.057,214.209 864.224,306.376 896,423.5C 922.585,539.357 902.251,646.024 835,743.5C 793.71,800.458 744.21,848.958 686.5,889C 666.205,903.288 645.372,916.788 624,929.5C 623.203,892.242 622.87,854.909 623,817.5C 713.001,764.254 765.668,685.587 781,581.5C 791.154,501.722 775.154,427.722 733,359.5C 690.097,296.594 630.93,258.094 555.5,244C 472.501,243.5 389.501,243.333 306.5,243.5C 306.667,270.169 306.5,296.835 306,323.5C 305.827,327.541 305.327,331.541 304.5,335.5C 268.924,341.125 237.591,355.625 210.5,379C 185.142,402.673 163.975,429.506 147,459.5C 146.5,340.167 146.333,220.834 146.5,101.5 Z"/></g>
<g><path style="opacity:0.997" fill="#0093d4" d="M 396.5,373.5 C 447.119,370.881 495.786,379.381 542.5,399C 572.297,411.563 600.63,426.73 627.5,444.5C 608.149,465.35 588.982,486.35 570,507.5C 567.95,509.888 565.616,511.888 563,513.5C 524.887,491.074 483.72,479.074 439.5,477.5C 374.694,479.645 324.527,507.645 289,561.5C 254.17,617.317 246.504,676.65 266,739.5C 288.089,792.246 326.922,825.746 382.5,840C 418.746,848.42 455.413,850.753 492.5,847C 529.445,843.078 565.612,835.578 601,824.5C 601.5,862.499 601.667,900.499 601.5,938.5C 557.31,946.761 512.977,951.427 468.5,952.5C 415.401,952.447 364.068,942.947 314.5,924C 229.417,886.575 176.917,822.409 157,731.5C 139.8,627.938 164.8,536.272 232,456.5C 276.376,408.228 331.21,380.562 396.5,373.5 Z"/></g>
</svg>
